<svg width="28" height="28" viewBox="0 0 28 28" fill="none" xmlns="http://www.w3.org/2000/svg">
<path d="M20.622 15.55L14.965 21.208C14.5899 21.5829 14.0813 21.7936 13.551 21.7936C13.0207 21.7936 12.512 21.5829 12.137 21.208L6.47998 15.551C6.01235 15.0874 5.64089 14.5361 5.38691 13.9286C5.13294 13.3211 5.00145 12.6694 5.00001 12.0109C4.99857 11.3525 5.1272 10.7002 5.37851 10.0916C5.62982 9.48304 5.99887 8.93006 6.46447 8.46447C6.93006 7.99887 7.48304 7.62982 8.09164 7.37851C8.70025 7.1272 9.3525 6.99857 10.0109 7.00001C10.6694 7.00145 11.3211 7.13294 11.9286 7.38691C12.5361 7.64089 13.0874 8.01235 13.551 8.47998C14.4926 7.56185 15.7579 7.05165 17.073 7.05989C18.3881 7.06813 19.647 7.59415 20.577 8.52401C21.507 9.45386 22.0332 10.7127 22.0416 12.0278C22.05 13.3428 21.54 14.6083 20.622 15.55Z" fill="black" fill-opacity="0.42" stroke="white" stroke-width="2" stroke-linecap="round" stroke-linejoin="round"/>
</svg>
